<?xml version="1.0" encoding="UTF-8" standalone="no"?>
<!DOCTYPE svg PUBLIC "-//W3C//DTD SVG 1.1//EN"
 "http://www.w3.org/Graphics/SVG/1.1/DTD/svg11.dtd">
<!-- Generated by graphviz version 2.40.1 (20161225.0304)
 -->
<!-- Title: messages Pages: 1 -->
<svg width="785pt" height="742pt"
 viewBox="0.00 0.00 785.00 742.00" xmlns="http://www.w3.org/2000/svg" xmlns:xlink="http://www.w3.org/1999/xlink">
<g id="graph0" class="graph" transform="scale(1 1) rotate(0) translate(4 738)">
<title>messages</title>
<polygon fill="#ffffff" stroke="transparent" points="-4,4 -4,-738 781,-738 781,4 -4,4"/>
<!-- messages -->
<g id="node1" class="node">
<title>messages</title>
<polygon fill="#efefef" stroke="transparent" points="240,-652.5 240,-687.5 463,-687.5 463,-652.5 240,-652.5"/>
<polygon fill="none" stroke="#000000" points="240,-652.5 240,-687.5 463,-687.5 463,-652.5 240,-652.5"/>
<text text-anchor="start" x="246.7075" y="-665.3" font-family="Arial Bold" font-size="18.00" fill="#000000">messages</text>
<text text-anchor="start" x="328.7245" y="-665.3" font-family="Arial" font-size="14.00" fill="#000000">    </text>
<text text-anchor="start" x="362.9293" y="-665.3" font-family="Arial" font-size="14.00" fill="#666666">[BASE TABLE]</text>
<polygon fill="none" stroke="#000000" points="240,-622.5 240,-652.5 463,-652.5 463,-622.5 240,-622.5"/>
<text text-anchor="start" x="247" y="-633.9" font-family="Arial" font-size="14.00" fill="#000000">id </text>
<text text-anchor="start" x="261.7798" y="-633.9" font-family="Arial" font-size="14.00" fill="#666666">[int]</text>
<polygon fill="none" stroke="#000000" points="240,-592.5 240,-622.5 463,-622.5 463,-592.5 240,-592.5"/>
<text text-anchor="start" x="247" y="-603.9" font-family="Arial" font-size="14.00" fill="#000000">user_id </text>
<text text-anchor="start" x="296.7882" y="-603.9" font-family="Arial" font-size="14.00" fill="#666666">[int]</text>
<polygon fill="none" stroke="#000000" points="240,-562.5 240,-592.5 463,-592.5 463,-562.5 240,-562.5"/>
<text text-anchor="start" x="247" y="-573.9" font-family="Arial" font-size="14.00" fill="#000000">conversation_id </text>
<text text-anchor="start" x="348.9158" y="-573.9" font-family="Arial" font-size="14.00" fill="#666666">[int]</text>
<polygon fill="none" stroke="#000000" points="240,-532.5 240,-562.5 463,-562.5 463,-532.5 240,-532.5"/>
<text text-anchor="start" x="247" y="-543.9" font-family="Arial" font-size="14.00" fill="#000000">message </text>
<text text-anchor="start" x="307.6816" y="-543.9" font-family="Arial" font-size="14.00" fill="#666666">[text]</text>
<polygon fill="none" stroke="#000000" points="240,-502.5 240,-532.5 463,-532.5 463,-502.5 240,-502.5"/>
<text text-anchor="start" x="247" y="-513.9" font-family="Arial" font-size="14.00" fill="#000000">is_read </text>
<text text-anchor="start" x="296.7882" y="-513.9" font-family="Arial" font-size="14.00" fill="#666666">[tinyint(1)]</text>
<polygon fill="none" stroke="#000000" points="240,-472.5 240,-502.5 463,-502.5 463,-472.5 240,-472.5"/>
<text text-anchor="start" x="247" y="-483.9" font-family="Arial" font-size="14.00" fill="#000000">created_at </text>
<text text-anchor="start" x="317.028" y="-483.9" font-family="Arial" font-size="14.00" fill="#666666">[datetime]</text>
<polygon fill="none" stroke="#000000" points="240,-442.5 240,-472.5 463,-472.5 463,-442.5 240,-442.5"/>
<text text-anchor="start" x="247" y="-453.9" font-family="Arial" font-size="14.00" fill="#000000">updated_at </text>
<text text-anchor="start" x="320.9326" y="-453.9" font-family="Arial" font-size="14.00" fill="#666666">[datetime]</text>
<polygon fill="none" stroke="#000000" points="240,-412.5 240,-442.5 463,-442.5 463,-412.5 240,-412.5"/>
<text text-anchor="start" x="247" y="-423.9" font-family="Arial" font-size="14.00" fill="#000000">deleted_at </text>
<text text-anchor="start" x="316.2566" y="-423.9" font-family="Arial" font-size="14.00" fill="#666666">[datetime]</text>
<polygon fill="none" stroke="#000000" stroke-width="3" points="238,-411.5 238,-689.5 464,-689.5 464,-411.5 238,-411.5"/>
</g>
<!-- users -->
<g id="node2" class="node">
<title>users</title>
<polygon fill="#efefef" stroke="transparent" points="62,-252.5 62,-287.5 295,-287.5 295,-252.5 62,-252.5"/>
<polygon fill="none" stroke="#000000" points="62,-252.5 62,-287.5 295,-287.5 295,-252.5 62,-252.5"/>
<text text-anchor="start" x="92.7137" y="-265.3" font-family="Arial Bold" font-size="18.00" fill="#000000">users</text>
<text text-anchor="start" x="136.7183" y="-265.3" font-family="Arial" font-size="14.00" fill="#000000">    </text>
<text text-anchor="start" x="170.9231" y="-265.3" font-family="Arial" font-size="14.00" fill="#666666">[BASE TABLE]</text>
<polygon fill="none" stroke="#000000" points="62,-222.5 62,-252.5 295,-252.5 295,-222.5 62,-222.5"/>
<text text-anchor="start" x="69" y="-233.9" font-family="Arial" font-size="14.00" fill="#000000">id    </text>
<text text-anchor="start" x="114.094" y="-233.9" font-family="Arial" font-size="14.00" fill="#666666">[int]</text>
<polygon fill="none" stroke="#000000" points="62,-192.5 62,-222.5 295,-222.5 295,-192.5 62,-192.5"/>
<text text-anchor="start" x="69" y="-203.9" font-family="Arial" font-size="14.00" fill="#000000">full_name    </text>
<text text-anchor="start" x="163.8822" y="-203.9" font-family="Arial" font-size="14.00" fill="#666666">[varchar(255)]</text>
<polygon fill="none" stroke="#000000" points="62,-162.5 62,-192.5 295,-192.5 295,-162.5 62,-162.5"/>
<text text-anchor="start" x="69" y="-173.9" font-family="Arial" font-size="14.00" fill="#000000">email    </text>
<text text-anchor="start" x="136.6438" y="-173.9" font-family="Arial" font-size="14.00" fill="#666666">[varchar(255)]</text>
<polygon fill="none" stroke="#000000" points="62,-132.5 62,-162.5 295,-162.5 295,-132.5 62,-132.5"/>
<text text-anchor="start" x="68.824" y="-143.9" font-family="Arial" font-size="14.00" fill="#000000">password_hash    </text>
<text text-anchor="start" x="201.0568" y="-143.9" font-family="Arial" font-size="14.00" fill="#666666">[varchar(255)]</text>
<polygon fill="none" stroke="#000000" points="62,-102.5 62,-132.5 295,-132.5 295,-102.5 62,-102.5"/>
<text text-anchor="start" x="69" y="-113.9" font-family="Arial" font-size="14.00" fill="#000000">created_at    </text>
<text text-anchor="start" x="169.3422" y="-113.9" font-family="Arial" font-size="14.00" fill="#666666">[datetime]</text>
<polygon fill="none" stroke="#000000" points="62,-72.5 62,-102.5 295,-102.5 295,-72.5 62,-72.5"/>
<text text-anchor="start" x="69" y="-83.9" font-family="Arial" font-size="14.00" fill="#000000">updated_at    </text>
<text text-anchor="start" x="173.2468" y="-83.9" font-family="Arial" font-size="14.00" fill="#666666">[datetime]</text>
<polygon fill="none" stroke="#000000" points="62,-42.5 62,-72.5 295,-72.5 295,-42.5 62,-42.5"/>
<text text-anchor="start" x="69" y="-53.9" font-family="Arial" font-size="14.00" fill="#000000">deleted_at    </text>
<text text-anchor="start" x="168.5708" y="-53.9" font-family="Arial" font-size="14.00" fill="#666666">[datetime]</text>
</g>
<!-- messages&#45;&gt;users -->
<g id="edge1" class="edge">
<title>messages:user_id&#45;&gt;users:id</title>
<path fill="none" stroke="#000000" d="M229.8856,-607.0228C136.8278,-597.8311 190.8543,-457.9056 240,-367 253.894,-341.3 281.106,-356.7 295,-331 314.7627,-294.4446 336.5556,-237.5 295,-237.5"/>
<polygon fill="#000000" stroke="#000000" points="230.0111,-607.0287 239.7879,-611.995 235.0056,-607.2643 240,-607.5 240,-607.5 240,-607.5 235.0056,-607.2643 240.2121,-603.005 230.0111,-607.0287 230.0111,-607.0287"/>
<text text-anchor="start" x="6.945" y="-617.5" font-family="Arial" font-size="10.00" fill="#000000">FOREIGN KEY (user_id) REFERENCES users (id)</text>
</g>
<!-- conversations -->
<g id="node3" class="node">
<title>conversations</title>
<polygon fill="#efefef" stroke="transparent" points="399,-207.5 399,-242.5 651,-242.5 651,-207.5 399,-207.5"/>
<polygon fill="none" stroke="#000000" points="399,-207.5 399,-242.5 651,-242.5 651,-207.5 399,-207.5"/>
<text text-anchor="start" x="405.7031" y="-220.3" font-family="Arial Bold" font-size="18.00" fill="#000000">conversations</text>
<text text-anchor="start" x="516.7289" y="-220.3" font-family="Arial" font-size="14.00" fill="#000000">    </text>
<text text-anchor="start" x="550.9337" y="-220.3" font-family="Arial" font-size="14.00" fill="#666666">[BASE TABLE]</text>
<polygon fill="none" stroke="#000000" points="399,-177.5 399,-207.5 651,-207.5 651,-177.5 399,-177.5"/>
<text text-anchor="start" x="406" y="-188.9" font-family="Arial" font-size="14.00" fill="#000000">id    </text>
<text text-anchor="start" x="451.094" y="-188.9" font-family="Arial" font-size="14.00" fill="#666666">[int]</text>
<polygon fill="none" stroke="#000000" points="399,-147.5 399,-177.5 651,-177.5 651,-147.5 399,-147.5"/>
<text text-anchor="start" x="406" y="-158.9" font-family="Arial" font-size="14.00" fill="#000000">created_at    </text>
<text text-anchor="start" x="506.3422" y="-158.9" font-family="Arial" font-size="14.00" fill="#666666">[datetime]</text>
<polygon fill="none" stroke="#000000" points="399,-117.5 399,-147.5 651,-147.5 651,-117.5 399,-117.5"/>
<text text-anchor="start" x="406" y="-128.9" font-family="Arial" font-size="14.00" fill="#000000">updated_at    </text>
<text text-anchor="start" x="510.2468" y="-128.9" font-family="Arial" font-size="14.00" fill="#666666">[datetime]</text>
<polygon fill="none" stroke="#000000" points="399,-87.5 399,-117.5 651,-117.5 651,-87.5 399,-87.5"/>
<text text-anchor="start" x="406" y="-98.9" font-family="Arial" font-size="14.00" fill="#000000">deleted_at    </text>
<text text-anchor="start" x="505.5708" y="-98.9" font-family="Arial" font-size="14.00" fill="#666666">[datetime]</text>
</g>
<!-- messages&#45;&gt;conversations -->
<g id="edge2" class="edge">
<title>messages:conversation_id&#45;&gt;conversations:id</title>
<path fill="none" stroke="#000000" d="M473.2588,-576.9502C551.6941,-568.0105 492.5011,-451.9228 463,-367 447.9441,-323.6594 414.0559,-329.3406 399,-286 385.3635,-246.7456 357.4444,-192.5 399,-192.5"/>
<polygon fill="#000000" stroke="#000000" points="472.9857,-576.9648 462.7592,-573.0064 467.9928,-577.2324 463,-577.5 463,-577.5 463,-577.5 467.9928,-577.2324 463.2408,-581.9936 472.9857,-576.9648 472.9857,-576.9648"/>
<text text-anchor="start" x="469.711" y="-587.5" font-family="Arial" font-size="10.00" fill="#000000">FOREIGN KEY (conversation_id) REFERENCES conversations (id)</text>
</g>
</g>
</svg>
