<?xml version="1.0" encoding="UTF-8" standalone="no"?>
<!DOCTYPE svg PUBLIC "-//W3C//DTD SVG 1.1//EN"
 "http://www.w3.org/Graphics/SVG/1.1/DTD/svg11.dtd">
<!-- Generated by graphviz version 2.40.1 (20161225.0304)
 -->
<!-- Title: sample_project Pages: 1 -->
<svg width="778pt" height="736pt"
 viewBox="0.00 0.00 778.00 736.00" xmlns="http://www.w3.org/2000/svg" xmlns:xlink="http://www.w3.org/1999/xlink">
<g id="graph0" class="graph" transform="scale(1 1) rotate(0) translate(4 732)">
<title>sample_project</title>
<polygon fill="#ffffff" stroke="transparent" points="-4,4 -4,-732 774,-732 774,4 -4,4"/>
<!-- conversation_user_relation -->
<g id="node1" class="node">
<title>conversation_user_relation</title>
<polygon fill="#efefef" stroke="transparent" points="43.5,-619.5 43.5,-654.5 400.5,-654.5 400.5,-619.5 43.5,-619.5"/>
<polygon fill="none" stroke="#000000" points="43.5,-619.5 43.5,-654.5 400.5,-654.5 400.5,-619.5 43.5,-619.5"/>
<text text-anchor="start" x="50.1908" y="-632.3" font-family="Arial Bold" font-size="18.00" fill="#000000">conversation_user_relation</text>
<text text-anchor="start" x="266.2412" y="-632.3" font-family="Arial" font-size="14.00" fill="#000000">    </text>
<text text-anchor="start" x="300.446" y="-632.3" font-family="Arial" font-size="14.00" fill="#666666">[BASE TABLE]</text>
<polygon fill="none" stroke="#000000" points="43.5,-589.5 43.5,-619.5 400.5,-619.5 400.5,-589.5 43.5,-589.5"/>
<text text-anchor="start" x="50.5" y="-600.9" font-family="Arial" font-size="14.00" fill="#000000">id    </text>
<text text-anchor="start" x="95.594" y="-600.9" font-family="Arial" font-size="14.00" fill="#666666">[int]</text>
<polygon fill="none" stroke="#000000" points="43.5,-559.5 43.5,-589.5 400.5,-589.5 400.5,-559.5 43.5,-559.5"/>
<text text-anchor="start" x="50.5" y="-570.9" font-family="Arial" font-size="14.00" fill="#000000">user_id    </text>
<text text-anchor="start" x="130.6024" y="-570.9" font-family="Arial" font-size="14.00" fill="#666666">[int]</text>
<polygon fill="none" stroke="#000000" points="43.5,-529.5 43.5,-559.5 400.5,-559.5 400.5,-529.5 43.5,-529.5"/>
<text text-anchor="start" x="50.5" y="-540.9" font-family="Arial" font-size="14.00" fill="#000000">conversation_id    </text>
<text text-anchor="start" x="182.73" y="-540.9" font-family="Arial" font-size="14.00" fill="#666666">[int]</text>
<polygon fill="none" stroke="#000000" points="43.5,-499.5 43.5,-529.5 400.5,-529.5 400.5,-499.5 43.5,-499.5"/>
<text text-anchor="start" x="50.5" y="-510.9" font-family="Arial" font-size="14.00" fill="#000000">created_at    </text>
<text text-anchor="start" x="150.8422" y="-510.9" font-family="Arial" font-size="14.00" fill="#666666">[datetime]</text>
<polygon fill="none" stroke="#000000" points="43.5,-469.5 43.5,-499.5 400.5,-499.5 400.5,-469.5 43.5,-469.5"/>
<text text-anchor="start" x="50.5" y="-480.9" font-family="Arial" font-size="14.00" fill="#000000">updated_at    </text>
<text text-anchor="start" x="154.7468" y="-480.9" font-family="Arial" font-size="14.00" fill="#666666">[datetime]</text>
<polygon fill="none" stroke="#000000" points="43.5,-439.5 43.5,-469.5 400.5,-469.5 400.5,-439.5 43.5,-439.5"/>
<text text-anchor="start" x="50.5" y="-450.9" font-family="Arial" font-size="14.00" fill="#000000">deleted_at    </text>
<text text-anchor="start" x="150.0708" y="-450.9" font-family="Arial" font-size="14.00" fill="#666666">[datetime]</text>
</g>
<!-- conversations -->
<g id="node2" class="node">
<title>conversations</title>
<polygon fill="#efefef" stroke="transparent" points="119.5,-207.5 119.5,-242.5 371.5,-242.5 371.5,-207.5 119.5,-207.5"/>
<polygon fill="none" stroke="#000000" points="119.5,-207.5 119.5,-242.5 371.5,-242.5 371.5,-207.5 119.5,-207.5"/>
<text text-anchor="start" x="126.2031" y="-220.3" font-family="Arial Bold" font-size="18.00" fill="#000000">conversations</text>
<text text-anchor="start" x="237.2289" y="-220.3" font-family="Arial" font-size="14.00" fill="#000000">    </text>
<text text-anchor="start" x="271.4337" y="-220.3" font-family="Arial" font-size="14.00" fill="#666666">[BASE TABLE]</text>
<polygon fill="none" stroke="#000000" points="119.5,-177.5 119.5,-207.5 371.5,-207.5 371.5,-177.5 119.5,-177.5"/>
<text text-anchor="start" x="126.5" y="-188.9" font-family="Arial" font-size="14.00" fill="#000000">id    </text>
<text text-anchor="start" x="171.594" y="-188.9" font-family="Arial" font-size="14.00" fill="#666666">[int]</text>
<polygon fill="none" stroke="#000000" points="119.5,-147.5 119.5,-177.5 371.5,-177.5 371.5,-147.5 119.5,-147.5"/>
<text text-anchor="start" x="126.5" y="-158.9" font-family="Arial" font-size="14.00" fill="#000000">created_at    </text>
<text text-anchor="start" x="226.8422" y="-158.9" font-family="Arial" font-size="14.00" fill="#666666">[datetime]</text>
<polygon fill="none" stroke="#000000" points="119.5,-117.5 119.5,-147.5 371.5,-147.5 371.5,-117.5 119.5,-117.5"/>
<text text-anchor="start" x="126.5" y="-128.9" font-family="Arial" font-size="14.00" fill="#000000">updated_at    </text>
<text text-anchor="start" x="230.7468" y="-128.9" font-family="Arial" font-size="14.00" fill="#666666">[datetime]</text>
<polygon fill="none" stroke="#000000" points="119.5,-87.5 119.5,-117.5 371.5,-117.5 371.5,-87.5 119.5,-87.5"/>
<text text-anchor="start" x="126.5" y="-98.9" font-family="Arial" font-size="14.00" fill="#000000">deleted_at    </text>
<text text-anchor="start" x="226.0708" y="-98.9" font-family="Arial" font-size="14.00" fill="#666666">[datetime]</text>
</g>
<!-- conversation_user_relation&#45;&gt;conversations -->
<g id="edge2" class="edge">
<title>conversation_user_relation:conversation_id&#45;&gt;conversations:id</title>
<path fill="none" stroke="#000000" d="M410.7479,-543.6261C462.7797,-534.0569 435.2807,-448.135 400.5,-397 324.98,-285.9697 195.02,-397.0303 119.5,-286 96.1288,-251.6394 77.9444,-192.5 119.5,-192.5"/>
<polygon fill="#000000" stroke="#000000" points="410.4638,-543.6503 400.1176,-540.0163 405.4819,-544.0751 400.5,-544.5 400.5,-544.5 400.5,-544.5 405.4819,-544.0751 400.8824,-548.9837 410.4638,-543.6503 410.4638,-543.6503"/>
<text text-anchor="start" x="407.211" y="-554.5" font-family="Arial" font-size="10.00" fill="#000000">FOREIGN KEY (conversation_id) REFERENCES conversations (id)</text>
</g>
<!-- users -->
<g id="node4" class="node">
<title>users</title>
<polygon fill="#efefef" stroke="transparent" points="487.5,-252.5 487.5,-287.5 720.5,-287.5 720.5,-252.5 487.5,-252.5"/>
<polygon fill="none" stroke="#000000" points="487.5,-252.5 487.5,-287.5 720.5,-287.5 720.5,-252.5 487.5,-252.5"/>
<text text-anchor="start" x="518.2137" y="-265.3" font-family="Arial Bold" font-size="18.00" fill="#000000">users</text>
<text text-anchor="start" x="562.2183" y="-265.3" font-family="Arial" font-size="14.00" fill="#000000">    </text>
<text text-anchor="start" x="596.4231" y="-265.3" font-family="Arial" font-size="14.00" fill="#666666">[BASE TABLE]</text>
<polygon fill="none" stroke="#000000" points="487.5,-222.5 487.5,-252.5 720.5,-252.5 720.5,-222.5 487.5,-222.5"/>
<text text-anchor="start" x="494.5" y="-233.9" font-family="Arial" font-size="14.00" fill="#000000">id    </text>
<text text-anchor="start" x="539.594" y="-233.9" font-family="Arial" font-size="14.00" fill="#666666">[int]</text>
<polygon fill="none" stroke="#000000" points="487.5,-192.5 487.5,-222.5 720.5,-222.5 720.5,-192.5 487.5,-192.5"/>
<text text-anchor="start" x="494.5" y="-203.9" font-family="Arial" font-size="14.00" fill="#000000">full_name    </text>
<text text-anchor="start" x="589.3822" y="-203.9" font-family="Arial" font-size="14.00" fill="#666666">[varchar(255)]</text>
<polygon fill="none" stroke="#000000" points="487.5,-162.5 487.5,-192.5 720.5,-192.5 720.5,-162.5 487.5,-162.5"/>
<text text-anchor="start" x="494.5" y="-173.9" font-family="Arial" font-size="14.00" fill="#000000">email    </text>
<text text-anchor="start" x="562.1438" y="-173.9" font-family="Arial" font-size="14.00" fill="#666666">[varchar(255)]</text>
<polygon fill="none" stroke="#000000" points="487.5,-132.5 487.5,-162.5 720.5,-162.5 720.5,-132.5 487.5,-132.5"/>
<text text-anchor="start" x="494.324" y="-143.9" font-family="Arial" font-size="14.00" fill="#000000">password_hash    </text>
<text text-anchor="start" x="626.5568" y="-143.9" font-family="Arial" font-size="14.00" fill="#666666">[varchar(255)]</text>
<polygon fill="none" stroke="#000000" points="487.5,-102.5 487.5,-132.5 720.5,-132.5 720.5,-102.5 487.5,-102.5"/>
<text text-anchor="start" x="494.5" y="-113.9" font-family="Arial" font-size="14.00" fill="#000000">created_at    </text>
<text text-anchor="start" x="594.8422" y="-113.9" font-family="Arial" font-size="14.00" fill="#666666">[datetime]</text>
<polygon fill="none" stroke="#000000" points="487.5,-72.5 487.5,-102.5 720.5,-102.5 720.5,-72.5 487.5,-72.5"/>
<text text-anchor="start" x="494.5" y="-83.9" font-family="Arial" font-size="14.00" fill="#000000">updated_at    </text>
<text text-anchor="start" x="598.7468" y="-83.9" font-family="Arial" font-size="14.00" fill="#666666">[datetime]</text>
<polygon fill="none" stroke="#000000" points="487.5,-42.5 487.5,-72.5 720.5,-72.5 720.5,-42.5 487.5,-42.5"/>
<text text-anchor="start" x="494.5" y="-53.9" font-family="Arial" font-size="14.00" fill="#000000">deleted_at    </text>
<text text-anchor="start" x="594.0708" y="-53.9" font-family="Arial" font-size="14.00" fill="#666666">[datetime]</text>
</g>
<!-- conversation_user_relation&#45;&gt;users -->
<g id="edge1" class="edge">
<title>conversation_user_relation:user_id&#45;&gt;users:id</title>
<path fill="none" stroke="#000000" d="M410.4504,-572.348C471.8171,-543.6467 413.7813,-237.5 487.5,-237.5"/>
<polygon fill="#000000" stroke="#000000" points="410.274,-572.386 399.5487,-570.1017 405.387,-573.443 400.5,-574.5 400.5,-574.5 400.5,-574.5 405.387,-573.443 401.4513,-578.8983 410.274,-572.386 410.274,-572.386"/>
<text text-anchor="start" x="407.445" y="-584.5" font-family="Arial" font-size="10.00" fill="#000000">FOREIGN KEY (user_id) REFERENCES users (id)</text>
</g>
<!-- messages -->
<g id="node3" class="node">
<title>messages</title>
<polygon fill="#efefef" stroke="transparent" points="504.5,-649.5 504.5,-684.5 727.5,-684.5 727.5,-649.5 504.5,-649.5"/>
<polygon fill="none" stroke="#000000" points="504.5,-649.5 504.5,-684.5 727.5,-684.5 727.5,-649.5 504.5,-649.5"/>
<text text-anchor="start" x="511.2075" y="-662.3" font-family="Arial Bold" font-size="18.00" fill="#000000">messages</text>
<text text-anchor="start" x="593.2245" y="-662.3" font-family="Arial" font-size="14.00" fill="#000000">    </text>
<text text-anchor="start" x="627.4293" y="-662.3" font-family="Arial" font-size="14.00" fill="#666666">[BASE TABLE]</text>
<polygon fill="none" stroke="#000000" points="504.5,-619.5 504.5,-649.5 727.5,-649.5 727.5,-619.5 504.5,-619.5"/>
<text text-anchor="start" x="511.5" y="-630.9" font-family="Arial" font-size="14.00" fill="#000000">id    </text>
<text text-anchor="start" x="556.594" y="-630.9" font-family="Arial" font-size="14.00" fill="#666666">[int]</text>
<polygon fill="none" stroke="#000000" points="504.5,-589.5 504.5,-619.5 727.5,-619.5 727.5,-589.5 504.5,-589.5"/>
<text text-anchor="start" x="511.5" y="-600.9" font-family="Arial" font-size="14.00" fill="#000000">user_id    </text>
<text text-anchor="start" x="591.6024" y="-600.9" font-family="Arial" font-size="14.00" fill="#666666">[int]</text>
<polygon fill="none" stroke="#000000" points="504.5,-559.5 504.5,-589.5 727.5,-589.5 727.5,-559.5 504.5,-559.5"/>
<text text-anchor="start" x="511.5" y="-570.9" font-family="Arial" font-size="14.00" fill="#000000">conversation_id    </text>
<text text-anchor="start" x="643.73" y="-570.9" font-family="Arial" font-size="14.00" fill="#666666">[int]</text>
<polygon fill="none" stroke="#000000" points="504.5,-529.5 504.5,-559.5 727.5,-559.5 727.5,-529.5 504.5,-529.5"/>
<text text-anchor="start" x="511.5" y="-540.9" font-family="Arial" font-size="14.00" fill="#000000">message    </text>
<text text-anchor="start" x="602.4958" y="-540.9" font-family="Arial" font-size="14.00" fill="#666666">[text]</text>
<polygon fill="none" stroke="#000000" points="504.5,-499.5 504.5,-529.5 727.5,-529.5 727.5,-499.5 504.5,-499.5"/>
<text text-anchor="start" x="511.5" y="-510.9" font-family="Arial" font-size="14.00" fill="#000000">is_read    </text>
<text text-anchor="start" x="591.6024" y="-510.9" font-family="Arial" font-size="14.00" fill="#666666">[tinyint(1)]</text>
<polygon fill="none" stroke="#000000" points="504.5,-469.5 504.5,-499.5 727.5,-499.5 727.5,-469.5 504.5,-469.5"/>
<text text-anchor="start" x="511.5" y="-480.9" font-family="Arial" font-size="14.00" fill="#000000">created_at    </text>
<text text-anchor="start" x="611.8422" y="-480.9" font-family="Arial" font-size="14.00" fill="#666666">[datetime]</text>
<polygon fill="none" stroke="#000000" points="504.5,-439.5 504.5,-469.5 727.5,-469.5 727.5,-439.5 504.5,-439.5"/>
<text text-anchor="start" x="511.5" y="-450.9" font-family="Arial" font-size="14.00" fill="#000000">updated_at    </text>
<text text-anchor="start" x="615.7468" y="-450.9" font-family="Arial" font-size="14.00" fill="#666666">[datetime]</text>
<polygon fill="none" stroke="#000000" points="504.5,-409.5 504.5,-439.5 727.5,-439.5 727.5,-409.5 504.5,-409.5"/>
<text text-anchor="start" x="511.5" y="-420.9" font-family="Arial" font-size="14.00" fill="#000000">deleted_at    </text>
<text text-anchor="start" x="611.0708" y="-420.9" font-family="Arial" font-size="14.00" fill="#666666">[datetime]</text>
</g>
<!-- messages&#45;&gt;conversations -->
<g id="edge4" class="edge">
<title>messages:conversation_id&#45;&gt;conversations:id</title>
<path fill="none" stroke="#000000" d="M494.1209,-573.9687C415.1283,-565.3266 483.2569,-453.0273 452.5,-367 446.5431,-350.3386 442.989,-347.0313 435.5,-331 406.7999,-269.5632 439.3098,-192.5 371.5,-192.5"/>
<polygon fill="#000000" stroke="#000000" points="494.5131,-573.9887 504.2699,-578.9941 499.5065,-574.2443 504.5,-574.5 504.5,-574.5 504.5,-574.5 499.5065,-574.2443 504.7301,-570.0059 494.5131,-573.9887 494.5131,-573.9887"/>
<text text-anchor="start" x="275.711" y="-558.5" font-family="Arial" font-size="10.00" fill="#000000">FOREIGN KEY (conversation_id) REFERENCES conversations (id)</text>
</g>
<!-- messages&#45;&gt;users -->
<g id="edge3" class="edge">
<title>messages:user_id&#45;&gt;users:id</title>
<path fill="none" stroke="#000000" d="M494.6601,-601.8482C454.3461,-578.2685 472.7178,-404.5176 504.5,-367 567.4079,-292.7397 657.5921,-405.2603 720.5,-331 747.3605,-299.2923 762.0556,-237.5 720.5,-237.5"/>
<polygon fill="#000000" stroke="#000000" points="494.8445,-601.8978 503.329,-608.845 499.6722,-603.1989 504.5,-604.5 504.5,-604.5 504.5,-604.5 499.6722,-603.1989 505.671,-600.155 494.8445,-601.8978 494.8445,-601.8978"/>
<text text-anchor="start" x="511.445" y="-614.5" font-family="Arial" font-size="10.00" fill="#000000">FOREIGN KEY (user_id) REFERENCES users (id)</text>
</g>
</g>
</svg>
