<?xml version="1.0" encoding="UTF-8" standalone="no"?>
<!DOCTYPE svg PUBLIC "-//W3C//DTD SVG 1.1//EN"
 "http://www.w3.org/Graphics/SVG/1.1/DTD/svg11.dtd">
<!-- Generated by graphviz version 2.40.1 (20161225.0304)
 -->
<!-- Title: users Pages: 1 -->
<svg width="778pt" height="742pt"
 viewBox="0.00 0.00 778.00 742.00" xmlns="http://www.w3.org/2000/svg" xmlns:xlink="http://www.w3.org/1999/xlink">
<g id="graph0" class="graph" transform="scale(1 1) rotate(0) translate(4 738)">
<title>users</title>
<polygon fill="#ffffff" stroke="transparent" points="-4,4 -4,-738 774,-738 774,4 -4,4"/>
<!-- users -->
<g id="node1" class="node">
<title>users</title>
<polygon fill="#efefef" stroke="transparent" points="317.5,-255.5 317.5,-290.5 520.5,-290.5 520.5,-255.5 317.5,-255.5"/>
<polygon fill="none" stroke="#000000" points="317.5,-255.5 317.5,-290.5 520.5,-290.5 520.5,-255.5 317.5,-255.5"/>
<text text-anchor="start" x="333.2137" y="-268.3" font-family="Arial Bold" font-size="18.00" fill="#000000">users</text>
<text text-anchor="start" x="377.2183" y="-268.3" font-family="Arial" font-size="14.00" fill="#000000">    </text>
<text text-anchor="start" x="411.4231" y="-268.3" font-family="Arial" font-size="14.00" fill="#666666">[BASE TABLE]</text>
<polygon fill="none" stroke="#000000" points="317.5,-225.5 317.5,-255.5 520.5,-255.5 520.5,-225.5 317.5,-225.5"/>
<text text-anchor="start" x="324.5" y="-236.9" font-family="Arial" font-size="14.00" fill="#000000">id </text>
<text text-anchor="start" x="339.2798" y="-236.9" font-family="Arial" font-size="14.00" fill="#666666">[int]</text>
<polygon fill="none" stroke="#000000" points="317.5,-195.5 317.5,-225.5 520.5,-225.5 520.5,-195.5 317.5,-195.5"/>
<text text-anchor="start" x="324.5" y="-206.9" font-family="Arial" font-size="14.00" fill="#000000">full_name </text>
<text text-anchor="start" x="389.068" y="-206.9" font-family="Arial" font-size="14.00" fill="#666666">[varchar(255)]</text>
<polygon fill="none" stroke="#000000" points="317.5,-165.5 317.5,-195.5 520.5,-195.5 520.5,-165.5 317.5,-165.5"/>
<text text-anchor="start" x="324.5" y="-176.9" font-family="Arial" font-size="14.00" fill="#000000">email </text>
<text text-anchor="start" x="361.8296" y="-176.9" font-family="Arial" font-size="14.00" fill="#666666">[varchar(255)]</text>
<polygon fill="none" stroke="#000000" points="317.5,-135.5 317.5,-165.5 520.5,-165.5 520.5,-135.5 317.5,-135.5"/>
<text text-anchor="start" x="324.4811" y="-146.9" font-family="Arial" font-size="14.00" fill="#000000">password_hash </text>
<text text-anchor="start" x="426.3997" y="-146.9" font-family="Arial" font-size="14.00" fill="#666666">[varchar(255)]</text>
<polygon fill="none" stroke="#000000" points="317.5,-105.5 317.5,-135.5 520.5,-135.5 520.5,-105.5 317.5,-105.5"/>
<text text-anchor="start" x="324.5" y="-116.9" font-family="Arial" font-size="14.00" fill="#000000">created_at </text>
<text text-anchor="start" x="394.528" y="-116.9" font-family="Arial" font-size="14.00" fill="#666666">[datetime]</text>
<polygon fill="none" stroke="#000000" points="317.5,-75.5 317.5,-105.5 520.5,-105.5 520.5,-75.5 317.5,-75.5"/>
<text text-anchor="start" x="324.5" y="-86.9" font-family="Arial" font-size="14.00" fill="#000000">updated_at </text>
<text text-anchor="start" x="398.4326" y="-86.9" font-family="Arial" font-size="14.00" fill="#666666">[datetime]</text>
<polygon fill="none" stroke="#000000" points="317.5,-45.5 317.5,-75.5 520.5,-75.5 520.5,-45.5 317.5,-45.5"/>
<text text-anchor="start" x="324.5" y="-56.9" font-family="Arial" font-size="14.00" fill="#000000">deleted_at </text>
<text text-anchor="start" x="393.7566" y="-56.9" font-family="Arial" font-size="14.00" fill="#666666">[datetime]</text>
<polygon fill="none" stroke="#000000" stroke-width="3" points="315.5,-44.5 315.5,-292.5 521.5,-292.5 521.5,-44.5 315.5,-44.5"/>
</g>
<!-- conversation_user_relation -->
<g id="node2" class="node">
<title>conversation_user_relation</title>
<polygon fill="#efefef" stroke="transparent" points="43.5,-625.5 43.5,-660.5 400.5,-660.5 400.5,-625.5 43.5,-625.5"/>
<polygon fill="none" stroke="#000000" points="43.5,-625.5 43.5,-660.5 400.5,-660.5 400.5,-625.5 43.5,-625.5"/>
<text text-anchor="start" x="50.1908" y="-638.3" font-family="Arial Bold" font-size="18.00" fill="#000000">conversation_user_relation</text>
<text text-anchor="start" x="266.2412" y="-638.3" font-family="Arial" font-size="14.00" fill="#000000">    </text>
<text text-anchor="start" x="300.446" y="-638.3" font-family="Arial" font-size="14.00" fill="#666666">[BASE TABLE]</text>
<polygon fill="none" stroke="#000000" points="43.5,-595.5 43.5,-625.5 400.5,-625.5 400.5,-595.5 43.5,-595.5"/>
<text text-anchor="start" x="50.5" y="-606.9" font-family="Arial" font-size="14.00" fill="#000000">id    </text>
<text text-anchor="start" x="95.594" y="-606.9" font-family="Arial" font-size="14.00" fill="#666666">[int]</text>
<polygon fill="none" stroke="#000000" points="43.5,-565.5 43.5,-595.5 400.5,-595.5 400.5,-565.5 43.5,-565.5"/>
<text text-anchor="start" x="50.5" y="-576.9" font-family="Arial" font-size="14.00" fill="#000000">user_id    </text>
<text text-anchor="start" x="130.6024" y="-576.9" font-family="Arial" font-size="14.00" fill="#666666">[int]</text>
<polygon fill="none" stroke="#000000" points="43.5,-535.5 43.5,-565.5 400.5,-565.5 400.5,-535.5 43.5,-535.5"/>
<text text-anchor="start" x="50.5" y="-546.9" font-family="Arial" font-size="14.00" fill="#000000">conversation_id    </text>
<text text-anchor="start" x="182.73" y="-546.9" font-family="Arial" font-size="14.00" fill="#666666">[int]</text>
<polygon fill="none" stroke="#000000" points="43.5,-505.5 43.5,-535.5 400.5,-535.5 400.5,-505.5 43.5,-505.5"/>
<text text-anchor="start" x="50.5" y="-516.9" font-family="Arial" font-size="14.00" fill="#000000">created_at    </text>
<text text-anchor="start" x="150.8422" y="-516.9" font-family="Arial" font-size="14.00" fill="#666666">[datetime]</text>
<polygon fill="none" stroke="#000000" points="43.5,-475.5 43.5,-505.5 400.5,-505.5 400.5,-475.5 43.5,-475.5"/>
<text text-anchor="start" x="50.5" y="-486.9" font-family="Arial" font-size="14.00" fill="#000000">updated_at    </text>
<text text-anchor="start" x="154.7468" y="-486.9" font-family="Arial" font-size="14.00" fill="#666666">[datetime]</text>
<polygon fill="none" stroke="#000000" points="43.5,-445.5 43.5,-475.5 400.5,-475.5 400.5,-445.5 43.5,-445.5"/>
<text text-anchor="start" x="50.5" y="-456.9" font-family="Arial" font-size="14.00" fill="#000000">deleted_at    </text>
<text text-anchor="start" x="150.0708" y="-456.9" font-family="Arial" font-size="14.00" fill="#666666">[datetime]</text>
</g>
<!-- conversation_user_relation&#45;&gt;users -->
<g id="edge1" class="edge">
<title>conversation_user_relation:user_id&#45;&gt;users:id</title>
<path fill="none" stroke="#000000" d="M410.7935,-579.8129C475.2294,-570.5983 433.1717,-470.7218 400.5,-403 380.0213,-360.5517 337.9787,-379.4483 317.5,-337 298.8641,-298.3715 274.6111,-240.5 317.5,-240.5"/>
<polygon fill="#000000" stroke="#000000" points="410.4778,-579.8339 400.2003,-576.01 405.4889,-580.167 400.5,-580.5 400.5,-580.5 400.5,-580.5 405.4889,-580.167 400.7997,-584.99 410.4778,-579.8339 410.4778,-579.8339"/>
<text text-anchor="start" x="407.445" y="-590.5" font-family="Arial" font-size="10.00" fill="#000000">FOREIGN KEY (user_id) REFERENCES users (id)</text>
</g>
<!-- messages -->
<g id="node3" class="node">
<title>messages</title>
<polygon fill="#efefef" stroke="transparent" points="504.5,-655.5 504.5,-690.5 727.5,-690.5 727.5,-655.5 504.5,-655.5"/>
<polygon fill="none" stroke="#000000" points="504.5,-655.5 504.5,-690.5 727.5,-690.5 727.5,-655.5 504.5,-655.5"/>
<text text-anchor="start" x="511.2075" y="-668.3" font-family="Arial Bold" font-size="18.00" fill="#000000">messages</text>
<text text-anchor="start" x="593.2245" y="-668.3" font-family="Arial" font-size="14.00" fill="#000000">    </text>
<text text-anchor="start" x="627.4293" y="-668.3" font-family="Arial" font-size="14.00" fill="#666666">[BASE TABLE]</text>
<polygon fill="none" stroke="#000000" points="504.5,-625.5 504.5,-655.5 727.5,-655.5 727.5,-625.5 504.5,-625.5"/>
<text text-anchor="start" x="511.5" y="-636.9" font-family="Arial" font-size="14.00" fill="#000000">id    </text>
<text text-anchor="start" x="556.594" y="-636.9" font-family="Arial" font-size="14.00" fill="#666666">[int]</text>
<polygon fill="none" stroke="#000000" points="504.5,-595.5 504.5,-625.5 727.5,-625.5 727.5,-595.5 504.5,-595.5"/>
<text text-anchor="start" x="511.5" y="-606.9" font-family="Arial" font-size="14.00" fill="#000000">user_id    </text>
<text text-anchor="start" x="591.6024" y="-606.9" font-family="Arial" font-size="14.00" fill="#666666">[int]</text>
<polygon fill="none" stroke="#000000" points="504.5,-565.5 504.5,-595.5 727.5,-595.5 727.5,-565.5 504.5,-565.5"/>
<text text-anchor="start" x="511.5" y="-576.9" font-family="Arial" font-size="14.00" fill="#000000">conversation_id    </text>
<text text-anchor="start" x="643.73" y="-576.9" font-family="Arial" font-size="14.00" fill="#666666">[int]</text>
<polygon fill="none" stroke="#000000" points="504.5,-535.5 504.5,-565.5 727.5,-565.5 727.5,-535.5 504.5,-535.5"/>
<text text-anchor="start" x="511.5" y="-546.9" font-family="Arial" font-size="14.00" fill="#000000">message    </text>
<text text-anchor="start" x="602.4958" y="-546.9" font-family="Arial" font-size="14.00" fill="#666666">[text]</text>
<polygon fill="none" stroke="#000000" points="504.5,-505.5 504.5,-535.5 727.5,-535.5 727.5,-505.5 504.5,-505.5"/>
<text text-anchor="start" x="511.5" y="-516.9" font-family="Arial" font-size="14.00" fill="#000000">is_read    </text>
<text text-anchor="start" x="591.6024" y="-516.9" font-family="Arial" font-size="14.00" fill="#666666">[tinyint(1)]</text>
<polygon fill="none" stroke="#000000" points="504.5,-475.5 504.5,-505.5 727.5,-505.5 727.5,-475.5 504.5,-475.5"/>
<text text-anchor="start" x="511.5" y="-486.9" font-family="Arial" font-size="14.00" fill="#000000">created_at    </text>
<text text-anchor="start" x="611.8422" y="-486.9" font-family="Arial" font-size="14.00" fill="#666666">[datetime]</text>
<polygon fill="none" stroke="#000000" points="504.5,-445.5 504.5,-475.5 727.5,-475.5 727.5,-445.5 504.5,-445.5"/>
<text text-anchor="start" x="511.5" y="-456.9" font-family="Arial" font-size="14.00" fill="#000000">updated_at    </text>
<text text-anchor="start" x="615.7468" y="-456.9" font-family="Arial" font-size="14.00" fill="#666666">[datetime]</text>
<polygon fill="none" stroke="#000000" points="504.5,-415.5 504.5,-445.5 727.5,-445.5 727.5,-415.5 504.5,-415.5"/>
<text text-anchor="start" x="511.5" y="-426.9" font-family="Arial" font-size="14.00" fill="#000000">deleted_at    </text>
<text text-anchor="start" x="611.0708" y="-426.9" font-family="Arial" font-size="14.00" fill="#666666">[datetime]</text>
</g>
<!-- messages&#45;&gt;users -->
<g id="edge2" class="edge">
<title>messages:user_id&#45;&gt;users:id</title>
<path fill="none" stroke="#000000" d="M494.7266,-607.8545C457.4508,-585.0254 494.3141,-420.9979 504.5,-373 508.1347,-355.8723 516.8653,-354.1277 520.5,-337 529.4034,-295.0454 563.3889,-240.5 520.5,-240.5"/>
<polygon fill="#000000" stroke="#000000" points="494.8474,-607.8871 503.3242,-614.8437 499.6737,-609.1936 504.5,-610.5 504.5,-610.5 504.5,-610.5 499.6737,-609.1936 505.6758,-606.1563 494.8474,-607.8871 494.8474,-607.8871"/>
<text text-anchor="start" x="511.445" y="-620.5" font-family="Arial" font-size="10.00" fill="#000000">FOREIGN KEY (user_id) REFERENCES users (id)</text>
</g>
</g>
</svg>
